<svg xmlns="http://www.w3.org/2000/svg" xmlns:xlink="http://www.w3.org/1999/xlink" width="375" height="538" viewBox="0 0 375 538">
  <defs>
    <clipPath id="clip-Add_Moodle_3">
      <rect width="375" height="538"/>
    </clipPath>
  </defs>
  <g id="Add_Moodle_3" data-name="Add Moodle – 3" clip-path="url(#clip-Add_Moodle_3)">
    <rect width="375" height="538" fill="#fff"/>
    <g id="Header">
      <rect id="Rectangle_3" data-name="Rectangle 3" width="375" height="45" fill="#6dd8ff"/>
      <text id="Select_your_downloads" data-name="Select your downloads" transform="translate(42 29)" fill="#fff" font-size="20" font-family="SegoeUI, Segoe UI"><tspan x="0" y="0">Select your downloads</tspan></text>
      <path id="chevron-left-solid_1_" data-name="chevron-left-solid (1)" d="M27.975,51.5,41.327,38.145a1.649,1.649,0,0,1,2.332,0L45.216,39.7a1.649,1.649,0,0,1,0,2.329L34.637,52.662,45.218,63.293a1.648,1.648,0,0,1,0,2.329L43.658,67.18a1.649,1.649,0,0,1-2.332,0L27.975,53.828A1.649,1.649,0,0,1,27.975,51.5Z" transform="translate(-19.493 -29.663)" fill="#fff"/>
    </g>
    <text id="Choose_below_which_files_you_want_to_download._Don_t_worry_you_can_always_change_it_later" data-name="Choose below which files you want to download.
Don&apos;t worry, you can always change it later" transform="translate(14 68)" fill="#2f2a2a" font-size="15" font-family="SegoeUI, Segoe UI"><tspan x="0" y="0">Choose below which files you want to download.</tspan><tspan x="0" y="20">Don&apos;t worry, you can always change it later</tspan></text>
    <g id="Entry" transform="translate(14 107)">
      <g id="Rectangle_4" data-name="Rectangle 4" fill="#fff" stroke="#707070" stroke-width="1">
        <rect width="344" height="38" stroke="none"/>
        <rect x="0.5" y="0.5" width="343" height="37" fill="none"/>
      </g>
      <text id="ARQCP" transform="translate(45 25)" fill="#4a4545" font-size="15" font-family="SegoeUI, Segoe UI"><tspan x="0" y="0">ARQCP</tspan></text>
      <g id="Rectangle_13" data-name="Rectangle 13" transform="translate(10 10)" fill="#fff" stroke="#707070" stroke-width="1">
        <rect width="21" height="19" stroke="none"/>
        <rect x="0.5" y="0.5" width="20" height="18" fill="none"/>
      </g>
      <path id="Path_2" data-name="Path 2" d="M0,3,4.318,7.565,14.977-.556" transform="translate(13.5 16.5)" fill="none" stroke="#707070" stroke-width="1"/>
    </g>
    <path id="Path_3" data-name="Path 3" d="M19,0,9.526,8.2,0,0" transform="translate(328.5 121.5)" fill="none" stroke="#707070" stroke-width="1"/>
    <g id="Rectangle_15" data-name="Rectangle 15" transform="translate(14 144)" fill="#fff" stroke="#707070" stroke-width="1">
      <rect width="344" height="16" stroke="none"/>
      <rect x="0.5" y="0.5" width="343" height="15" fill="none"/>
    </g>
    <g id="Rectangle_16" data-name="Rectangle 16" transform="translate(24 146)" fill="#fff" stroke="#707070" stroke-width="1">
      <rect width="12" height="12" stroke="none"/>
      <rect x="0.5" y="0.5" width="11" height="11" fill="none"/>
    </g>
    <text id="Hello.pdf_1.2_MB_" data-name="Hello.pdf (1.2 MB)" transform="translate(41 155)" fill="#2f2a2a" font-size="9" font-family="SegoeUI, Segoe UI"><tspan x="0" y="0">Hello.pdf (1.2 MB)</tspan></text>
    <g id="Rectangle_17" data-name="Rectangle 17" transform="translate(14 159)" fill="#fff" stroke="#707070" stroke-width="1">
      <rect width="344" height="16" stroke="none"/>
      <rect x="0.5" y="0.5" width="343" height="15" fill="none"/>
    </g>
    <g id="Rectangle_18" data-name="Rectangle 18" transform="translate(24 161)" fill="#fff" stroke="#707070" stroke-width="1">
      <rect width="12" height="12" stroke="none"/>
      <rect x="0.5" y="0.5" width="11" height="11" fill="none"/>
    </g>
    <text id="CourseDistro.iso_2.4_GB_" data-name="CourseDistro.iso (2.4 GB)" transform="translate(41 170)" fill="#2f2a2a" font-size="9" font-family="SegoeUI, Segoe UI"><tspan x="0" y="0">CourseDistro.iso (2.4 GB)</tspan></text>
    <g id="Rectangle_19" data-name="Rectangle 19" transform="translate(14 174)" fill="#fff" stroke="#707070" stroke-width="1">
      <rect width="344" height="16" stroke="none"/>
      <rect x="0.5" y="0.5" width="343" height="15" fill="none"/>
    </g>
    <g id="Rectangle_20" data-name="Rectangle 20" transform="translate(24 176)" fill="#fff" stroke="#707070" stroke-width="1">
      <rect width="12" height="12" stroke="none"/>
      <rect x="0.5" y="0.5" width="11" height="11" fill="none"/>
    </g>
    <text id="LotsOfMaybeUsefulInformation.zip_20_MB_" data-name="LotsOfMaybeUsefulInformation.zip (20 MB)" transform="translate(41 185)" fill="#2f2a2a" font-size="9" font-family="SegoeUI, Segoe UI"><tspan x="0" y="0">LotsOfMaybeUsefulInformation.zip (20 MB)</tspan></text>
    <g id="Entry-2" data-name="Entry" transform="translate(14 189)">
      <g id="Rectangle_4-2" data-name="Rectangle 4" fill="#fff" stroke="#707070" stroke-width="1">
        <rect width="344" height="38" stroke="none"/>
        <rect x="0.5" y="0.5" width="343" height="37" fill="none"/>
      </g>
      <text id="BDDAD" transform="translate(45 25)" fill="#4a4545" font-size="15" font-family="SegoeUI, Segoe UI"><tspan x="0" y="0">BDDAD</tspan></text>
      <g id="Rectangle_13-2" data-name="Rectangle 13" transform="translate(10 10)" fill="#fff" stroke="#707070" stroke-width="1">
        <rect width="21" height="19" stroke="none"/>
        <rect x="0.5" y="0.5" width="20" height="18" fill="none"/>
      </g>
      <path id="Path_2-2" data-name="Path 2" d="M0,3,4.318,7.565,14.977-.556" transform="translate(13.5 16.5)" fill="none" stroke="#707070" stroke-width="1"/>
    </g>
    <path id="Path_4" data-name="Path 4" d="M19,0,9.526,8.2,0,0" transform="translate(328.5 203.5)" fill="none" stroke="#707070" stroke-width="1"/>
    <g id="Entry-3" data-name="Entry" transform="translate(14 226)">
      <g id="Rectangle_4-3" data-name="Rectangle 4" fill="#fff" stroke="#707070" stroke-width="1">
        <rect width="344" height="38" stroke="none"/>
        <rect x="0.5" y="0.5" width="343" height="37" fill="none"/>
      </g>
      <text id="ESINF" transform="translate(45 25)" fill="#4a4545" font-size="15" font-family="SegoeUI, Segoe UI"><tspan x="0" y="0">ESINF</tspan></text>
      <g id="Rectangle_13-3" data-name="Rectangle 13" transform="translate(10 10)" fill="#fff" stroke="#707070" stroke-width="1">
        <rect width="21" height="19" stroke="none"/>
        <rect x="0.5" y="0.5" width="20" height="18" fill="none"/>
      </g>
      <path id="Path_2-3" data-name="Path 2" d="M0,3,4.318,7.565,14.977-.556" transform="translate(13.5 16.5)" fill="none" stroke="#707070" stroke-width="1"/>
    </g>
    <path id="Path_5" data-name="Path 5" d="M19,0,9.526,8.2,0,0" transform="translate(328.5 240.5)" fill="none" stroke="#707070" stroke-width="1"/>
    <g id="Entry-4" data-name="Entry" transform="translate(14 263)">
      <g id="Rectangle_4-4" data-name="Rectangle 4" fill="#fff" stroke="#707070" stroke-width="1">
        <rect width="344" height="38" stroke="none"/>
        <rect x="0.5" y="0.5" width="343" height="37" fill="none"/>
      </g>
      <text id="FSIAP" transform="translate(45 25)" fill="#4a4545" font-size="15" font-family="SegoeUI, Segoe UI"><tspan x="0" y="0">FSIAP</tspan></text>
      <g id="Rectangle_13-4" data-name="Rectangle 13" transform="translate(10 10)" fill="#fff" stroke="#707070" stroke-width="1">
        <rect width="21" height="19" stroke="none"/>
        <rect x="0.5" y="0.5" width="20" height="18" fill="none"/>
      </g>
      <path id="Path_2-4" data-name="Path 2" d="M0,3,4.318,7.565,14.977-.556" transform="translate(13.5 16.5)" fill="none" stroke="#707070" stroke-width="1"/>
    </g>
    <path id="Path_6" data-name="Path 6" d="M19,0,9.526,8.2,0,0" transform="translate(328.5 277.5)" fill="none" stroke="#707070" stroke-width="1"/>
    <g id="Entry-5" data-name="Entry" transform="translate(14 300)">
      <g id="Rectangle_4-5" data-name="Rectangle 4" fill="#fff" stroke="#707070" stroke-width="1">
        <rect width="344" height="38" stroke="none"/>
        <rect x="0.5" y="0.5" width="343" height="37" fill="none"/>
      </g>
      <text id="LAPR3" transform="translate(45 25)" fill="#4a4545" font-size="15" font-family="SegoeUI, Segoe UI"><tspan x="0" y="0">LAPR3</tspan></text>
      <g id="Rectangle_13-5" data-name="Rectangle 13" transform="translate(10 10)" fill="#fff" stroke="#707070" stroke-width="1">
        <rect width="21" height="19" stroke="none"/>
        <rect x="0.5" y="0.5" width="20" height="18" fill="none"/>
      </g>
      <path id="Path_2-5" data-name="Path 2" d="M0,3,4.318,7.565,14.977-.556" transform="translate(13.5 16.5)" fill="none" stroke="#707070" stroke-width="1"/>
    </g>
    <path id="Path_7" data-name="Path 7" d="M19,0,9.526,8.2,0,0" transform="translate(328.5 314.5)" fill="none" stroke="#707070" stroke-width="1"/>
    <g id="Entry-6" data-name="Entry" transform="translate(14 337)">
      <g id="Rectangle_4-6" data-name="Rectangle 4" fill="#fff" stroke="#707070" stroke-width="1">
        <rect width="344" height="38" stroke="none"/>
        <rect x="0.5" y="0.5" width="343" height="37" fill="none"/>
      </g>
      <text id="EAPLI" transform="translate(45 25)" fill="#4a4545" font-size="15" font-family="SegoeUI, Segoe UI"><tspan x="0" y="0">EAPLI</tspan></text>
      <g id="Rectangle_13-6" data-name="Rectangle 13" transform="translate(10 10)" fill="#fff" stroke="#707070" stroke-width="1">
        <rect width="21" height="19" stroke="none"/>
        <rect x="0.5" y="0.5" width="20" height="18" fill="none"/>
      </g>
      <path id="Path_2-6" data-name="Path 2" d="M0,3,4.318,7.565,14.977-.556" transform="translate(13.5 16.5)" fill="none" stroke="#707070" stroke-width="1"/>
    </g>
    <path id="Path_8" data-name="Path 8" d="M19,0,9.526,8.2,0,0" transform="translate(328.5 351.5)" fill="none" stroke="#707070" stroke-width="1"/>
    <g id="Entry-7" data-name="Entry" transform="translate(14 374)">
      <g id="Rectangle_4-7" data-name="Rectangle 4" fill="#fff" stroke="#707070" stroke-width="1">
        <rect width="344" height="38" stroke="none"/>
        <rect x="0.5" y="0.5" width="343" height="37" fill="none"/>
      </g>
      <text id="LAPR4" transform="translate(45 25)" fill="#4a4545" font-size="15" font-family="SegoeUI, Segoe UI"><tspan x="0" y="0">LAPR4</tspan></text>
      <g id="Rectangle_13-7" data-name="Rectangle 13" transform="translate(10 10)" fill="#fff" stroke="#707070" stroke-width="1">
        <rect width="21" height="19" stroke="none"/>
        <rect x="0.5" y="0.5" width="20" height="18" fill="none"/>
      </g>
      <path id="Path_2-7" data-name="Path 2" d="M0,3,4.318,7.565,14.977-.556" transform="translate(13.5 16.5)" fill="none" stroke="#707070" stroke-width="1"/>
    </g>
    <path id="Path_9" data-name="Path 9" d="M19,0,9.526,8.2,0,0" transform="translate(328.5 388.5)" fill="none" stroke="#707070" stroke-width="1"/>
    <g id="Entry-8" data-name="Entry" transform="translate(14 411)">
      <g id="Rectangle_4-8" data-name="Rectangle 4" fill="#fff" stroke="#707070" stroke-width="1">
        <rect width="344" height="38" stroke="none"/>
        <rect x="0.5" y="0.5" width="343" height="37" fill="none"/>
      </g>
      <text id="LPROG" transform="translate(45 25)" fill="#4a4545" font-size="15" font-family="SegoeUI, Segoe UI"><tspan x="0" y="0">LPROG</tspan></text>
      <g id="Rectangle_13-8" data-name="Rectangle 13" transform="translate(10 10)" fill="#fff" stroke="#707070" stroke-width="1">
        <rect width="21" height="19" stroke="none"/>
        <rect x="0.5" y="0.5" width="20" height="18" fill="none"/>
      </g>
      <path id="Path_2-8" data-name="Path 2" d="M0,3,4.318,7.565,14.977-.556" transform="translate(13.5 16.5)" fill="none" stroke="#707070" stroke-width="1"/>
    </g>
    <path id="Path_10" data-name="Path 10" d="M19,0,9.526,8.2,0,0" transform="translate(328.5 425.5)" fill="none" stroke="#707070" stroke-width="1"/>
    <g id="Entry-9" data-name="Entry" transform="translate(14 448)">
      <g id="Rectangle_4-9" data-name="Rectangle 4" fill="#fff" stroke="#707070" stroke-width="1">
        <rect width="344" height="38" stroke="none"/>
        <rect x="0.5" y="0.5" width="343" height="37" fill="none"/>
      </g>
      <text id="RCOMP" transform="translate(45 25)" fill="#4a4545" font-size="15" font-family="SegoeUI, Segoe UI"><tspan x="0" y="0">RCOMP</tspan></text>
      <g id="Rectangle_13-9" data-name="Rectangle 13" transform="translate(10 10)" fill="#fff" stroke="#707070" stroke-width="1">
        <rect width="21" height="19" stroke="none"/>
        <rect x="0.5" y="0.5" width="20" height="18" fill="none"/>
      </g>
      <path id="Path_2-9" data-name="Path 2" d="M0,3,4.318,7.565,14.977-.556" transform="translate(13.5 16.5)" fill="none" stroke="#707070" stroke-width="1"/>
    </g>
    <path id="Path_11" data-name="Path 11" d="M19,0,9.526,8.2,0,0" transform="translate(328.5 462.5)" fill="none" stroke="#707070" stroke-width="1"/>
    <rect id="Rectangle_21" data-name="Rectangle 21" width="100" height="30" transform="translate(258 499)" fill="#6dd8ff"/>
    <text id="Download" transform="translate(274 520)" fill="#fff" font-size="15" font-family="SegoeUI, Segoe UI"><tspan x="0" y="0">Download</tspan></text>
  </g>
</svg>
