<svg xmlns="http://www.w3.org/2000/svg" xmlns:xlink="http://www.w3.org/1999/xlink" width="375" height="538" viewBox="0 0 375 538">
  <defs>
    <clipPath id="clip-Moodle_2">
      <rect width="375" height="538"/>
    </clipPath>
  </defs>
  <g id="Moodle_2" data-name="Moodle – 2" clip-path="url(#clip-Moodle_2)">
    <rect width="375" height="538" fill="#fff"/>
    <g id="Header" transform="translate(-1)">
      <rect id="Rectangle_3" data-name="Rectangle 3" width="375" height="45" fill="#6dd8ff"/>
      <text id="ARQCP" transform="translate(42 29)" fill="#fff" font-size="20" font-family="SegoeUI, Segoe UI"><tspan x="0" y="0">ARQCP</tspan></text>
      <path id="chevron-left-solid_1_" data-name="chevron-left-solid (1)" d="M27.975,51.5,41.327,38.145a1.649,1.649,0,0,1,2.332,0L45.216,39.7a1.649,1.649,0,0,1,0,2.329L34.637,52.662,45.218,63.293a1.648,1.648,0,0,1,0,2.329L43.658,67.18a1.649,1.649,0,0,1-2.332,0L27.975,53.828A1.649,1.649,0,0,1,27.975,51.5Z" transform="translate(-19.493 -29.663)" fill="#fff"/>
    </g>
    <path id="comments-solid_1_" data-name="comments-solid (1)" d="M14.444,37.556c0-3.069-3.233-5.556-7.222-5.556S0,34.486,0,37.556A4.711,4.711,0,0,0,1.319,40.75,7.815,7.815,0,0,1,.076,42.642a.276.276,0,0,0-.052.3.272.272,0,0,0,.253.167,6.114,6.114,0,0,0,3.08-.868,8.835,8.835,0,0,0,3.865.868C11.212,43.111,14.444,40.625,14.444,37.556Zm4.236,7.639A4.7,4.7,0,0,0,20,42c0-2.323-1.858-4.312-4.49-5.142a5.16,5.16,0,0,1,.045.7c0,3.677-3.74,6.667-8.333,6.667a10.411,10.411,0,0,1-1.1-.066,7.506,7.506,0,0,0,6.656,3.4,8.787,8.787,0,0,0,3.865-.868,6.114,6.114,0,0,0,3.08.868.274.274,0,0,0,.253-.167.278.278,0,0,0-.052-.3A7.732,7.732,0,0,1,18.681,45.194Z" transform="translate(45 33)"/>
    <text id="Announcements" transform="translate(75 79)" fill="#4a4545" font-size="15" font-family="SegoeUI, Segoe UI"><tspan x="0" y="0">Announcements</tspan></text>
    <line id="Line_4" data-name="Line 4" x2="339" transform="translate(17.5 100.5)" fill="none" stroke="#707070" stroke-width="1"/>
    <text id="Section_A" data-name="Section A" transform="translate(19 123)" fill="#4a4545" font-size="15" font-family="SegoeUI, Segoe UI"><tspan x="0" y="0">Section A</tspan></text>
    <path id="file-pdf-solid_1_" data-name="file-pdf-solid (1)" d="M10.9,15.339a5.779,5.779,0,0,1-.12-2.809C11.278,12.53,11.23,14.74,10.9,15.339Zm-.1,2.827a27.638,27.638,0,0,1-1.7,3.755A22.055,22.055,0,0,1,12.86,20.61a7.759,7.759,0,0,1-2.066-2.444ZM5.157,25.641c0,.048.791-.323,2.09-2.408A8.278,8.278,0,0,0,5.157,25.641Zm9.7-16.058H23V29.229a1.434,1.434,0,0,1-1.437,1.438H1.438A1.434,1.434,0,0,1,0,29.229V1.438A1.434,1.434,0,0,1,1.438,0H13.417V8.146A1.442,1.442,0,0,0,14.854,9.583Zm-.479,10.29a6.012,6.012,0,0,1-2.558-3.222,8.609,8.609,0,0,0,.371-3.845A1.5,1.5,0,0,0,9.326,12.4c-.3,1.1-.024,2.641.485,4.612a56.244,56.244,0,0,1-2.444,5.139c-.006,0-.006.006-.012.006-1.623.833-4.408,2.665-3.264,4.073a1.861,1.861,0,0,0,1.288.6c1.072,0,2.138-1.078,3.66-3.7a34.141,34.141,0,0,1,4.732-1.39A9.077,9.077,0,0,0,17.6,22.9a1.55,1.55,0,0,0,1.18-2.6C17.951,19.49,15.531,19.724,14.375,19.873ZM22.581,6.289,16.711.419A1.436,1.436,0,0,0,15.693,0h-.359V7.667H23V7.3A1.433,1.433,0,0,0,22.581,6.289ZM18.142,21.58c.246-.162-.15-.713-2.564-.539C17.8,21.988,18.142,21.58,18.142,21.58Z" transform="translate(45 166)"/>
    <text id="Hello.pdf" transform="translate(74 180)" fill="#4a4545" font-size="15" font-family="SegoeUI, Segoe UI"><tspan x="0" y="0">Hello.pdf</tspan></text>
    <path id="file-alt-solid" d="M13.417,8.146V0H1.438A1.434,1.434,0,0,0,0,1.438V29.229a1.434,1.434,0,0,0,1.438,1.438H21.563A1.434,1.434,0,0,0,23,29.229V9.583H14.854A1.442,1.442,0,0,1,13.417,8.146ZM17.25,22.281a.721.721,0,0,1-.719.719H6.469a.721.721,0,0,1-.719-.719V21.8a.721.721,0,0,1,.719-.719H16.531a.721.721,0,0,1,.719.719Zm0-3.833a.721.721,0,0,1-.719.719H6.469a.721.721,0,0,1-.719-.719v-.479a.721.721,0,0,1,.719-.719H16.531a.721.721,0,0,1,.719.719Zm0-4.312v.479a.721.721,0,0,1-.719.719H6.469a.721.721,0,0,1-.719-.719v-.479a.721.721,0,0,1,.719-.719H16.531A.721.721,0,0,1,17.25,14.135ZM23,7.3v.365H15.333V0H15.7a1.436,1.436,0,0,1,1.018.419l5.864,5.87A1.433,1.433,0,0,1,23,7.3Z" transform="translate(45 209)"/>
    <text id="CourseDistro.iso" transform="translate(74 223)" fill="#4a4545" font-size="15" font-family="SegoeUI, Segoe UI"><tspan x="0" y="0">CourseDistro.iso</tspan></text>
    <path id="file-archive-solid" d="M22.581,6.289,16.717.419A1.436,1.436,0,0,0,15.7,0h-.365V7.667H23V7.3A1.433,1.433,0,0,0,22.581,6.289ZM7.691,20.125A1.8,1.8,0,0,0,5.75,21.742,1.8,1.8,0,0,0,7.7,23.359a1.8,1.8,0,0,0,1.941-1.617A1.807,1.807,0,0,0,7.691,20.125ZM13.417,8.146V0H9.607V1.917H7.691V0H1.438A1.434,1.434,0,0,0,0,1.438V29.229a1.434,1.434,0,0,0,1.438,1.438H21.563A1.434,1.434,0,0,0,23,29.229V9.583H14.854A1.442,1.442,0,0,1,13.417,8.146ZM5.744,1.917H7.661V3.833H5.744Zm1.935,23A3.141,3.141,0,0,1,4.6,21.149l1.174-5.816V13.417H7.691V11.5H5.774V9.583H7.691V7.667H5.774V5.75H7.691V3.833H9.607V5.75H7.691V7.667H9.607V9.583H7.691V11.5H9.607v1.917H7.691v1.917H9.014a.724.724,0,0,1,.707.581l1.036,5.253a3.141,3.141,0,0,1-3.079,3.749Z" transform="translate(45 250)"/>
    <text id="LotsOfMaybeUsefulInformation.zip" transform="translate(74 264)" fill="#4a4545" font-size="15" font-family="SegoeUI, Segoe UI"><tspan x="0" y="0">LotsOfMaybeUsefulInformation.zip</tspan></text>
    <text id="_html_text_is_also_displayed_" data-name="&lt;html text is also displayed&gt;" transform="translate(19 147)" fill="#4a4545" font-size="15" font-family="SegoeUI, Segoe UI"><tspan x="0" y="0">&lt;html text is also displayed&gt;</tspan></text>
    <path id="trash-alt-solid" d="M.75,10.875A1.125,1.125,0,0,0,1.875,12h6.75A1.125,1.125,0,0,0,9.75,10.875V3h-9Zm6.375-6a.375.375,0,0,1,.75,0v5.25a.375.375,0,0,1-.75,0Zm-2.25,0a.375.375,0,1,1,.75,0v5.25a.375.375,0,0,1-.75,0Zm-2.25,0a.375.375,0,0,1,.75,0v5.25a.375.375,0,0,1-.75,0ZM10.125.75H7.312L7.092.312A.563.563,0,0,0,6.588,0H3.909a.556.556,0,0,0-.5.312L3.187.75H.375A.375.375,0,0,0,0,1.125v.75a.375.375,0,0,0,.375.375h9.75a.375.375,0,0,0,.375-.375v-.75A.375.375,0,0,0,10.125.75Z" transform="translate(340 173)"/>
    <path id="trash-alt-solid-2" data-name="trash-alt-solid" d="M.75,10.875A1.125,1.125,0,0,0,1.875,12h6.75A1.125,1.125,0,0,0,9.75,10.875V3h-9Zm6.375-6a.375.375,0,0,1,.75,0v5.25a.375.375,0,0,1-.75,0Zm-2.25,0a.375.375,0,1,1,.75,0v5.25a.375.375,0,0,1-.75,0Zm-2.25,0a.375.375,0,0,1,.75,0v5.25a.375.375,0,0,1-.75,0ZM10.125.75H7.312L7.092.312A.563.563,0,0,0,6.588,0H3.909a.556.556,0,0,0-.5.312L3.187.75H.375A.375.375,0,0,0,0,1.125v.75a.375.375,0,0,0,.375.375h9.75a.375.375,0,0,0,.375-.375v-.75A.375.375,0,0,0,10.125.75Z" transform="translate(340 257)"/>
    <text id="_1.2_MB_Last_updated:_12_12_2019" data-name="1.2 MB • Last updated: 12/12/2019" transform="translate(74 194)" fill="#b8b0b0" font-size="10" font-family="SegoeUI, Segoe UI"><tspan x="0" y="0">1.2 MB • Last updated: 12/12/2019</tspan></text>
    <text id="_2.4_GB_Last_updated:_23_01_2020" data-name="2.4 GB • Last updated: 23/01/2020" transform="translate(74 236)" fill="#b8b0b0" font-size="10" font-family="SegoeUI, Segoe UI"><tspan x="0" y="0">2.4 GB • Last updated: 23/01/2020</tspan></text>
    <text id="_20_MB_Last_updated:_12_12_2001" data-name="20 MB • Last updated: 12/12/2001" transform="translate(74 277)" fill="#b8b0b0" font-size="10" font-family="SegoeUI, Segoe UI"><tspan x="0" y="0">20 MB • Last updated: 12/12/2001</tspan></text>
    <path id="download-solid" d="M5.063,0H6.938A.561.561,0,0,1,7.5.563V4.5H9.555a.468.468,0,0,1,.33.8L6.321,8.866a.454.454,0,0,1-.64,0L2.112,5.3a.468.468,0,0,1,.33-.8H4.5V.563A.561.561,0,0,1,5.063,0ZM12,8.813v2.625a.561.561,0,0,1-.562.563H.563A.561.561,0,0,1,0,11.438V8.813A.561.561,0,0,1,.563,8.25H4L5.149,9.4a1.2,1.2,0,0,0,1.7,0L8,8.25h3.438A.561.561,0,0,1,12,8.813ZM9.094,10.875a.469.469,0,1,0-.469.469A.47.47,0,0,0,9.094,10.875Zm1.5,0a.469.469,0,1,0-.469.469A.47.47,0,0,0,10.594,10.875Z" transform="translate(339 213)"/>
    <line id="Line_5" data-name="Line 5" x2="339" transform="translate(17.5 304.5)" fill="none" stroke="#707070" stroke-width="1"/>
    <text id="Section_B" data-name="Section B" transform="translate(19 327)" fill="#4a4545" font-size="15" font-family="SegoeUI, Segoe UI"><tspan x="0" y="0">Section B</tspan></text>
    <path id="file-pdf-solid_1_2" data-name="file-pdf-solid (1)" d="M10.9,15.339a5.779,5.779,0,0,1-.12-2.809C11.278,12.53,11.23,14.74,10.9,15.339Zm-.1,2.827a27.638,27.638,0,0,1-1.7,3.755A22.055,22.055,0,0,1,12.86,20.61a7.759,7.759,0,0,1-2.066-2.444ZM5.157,25.641c0,.048.791-.323,2.09-2.408A8.278,8.278,0,0,0,5.157,25.641Zm9.7-16.058H23V29.229a1.434,1.434,0,0,1-1.437,1.438H1.438A1.434,1.434,0,0,1,0,29.229V1.438A1.434,1.434,0,0,1,1.438,0H13.417V8.146A1.442,1.442,0,0,0,14.854,9.583Zm-.479,10.29a6.012,6.012,0,0,1-2.558-3.222,8.609,8.609,0,0,0,.371-3.845A1.5,1.5,0,0,0,9.326,12.4c-.3,1.1-.024,2.641.485,4.612a56.244,56.244,0,0,1-2.444,5.139c-.006,0-.006.006-.012.006-1.623.833-4.408,2.665-3.264,4.073a1.861,1.861,0,0,0,1.288.6c1.072,0,2.138-1.078,3.66-3.7a34.141,34.141,0,0,1,4.732-1.39A9.077,9.077,0,0,0,17.6,22.9a1.55,1.55,0,0,0,1.18-2.6C17.951,19.49,15.531,19.724,14.375,19.873ZM22.581,6.289,16.711.419A1.436,1.436,0,0,0,15.693,0h-.359V7.667H23V7.3A1.433,1.433,0,0,0,22.581,6.289ZM18.142,21.58c.246-.162-.15-.713-2.564-.539C17.8,21.988,18.142,21.58,18.142,21.58Z" transform="translate(45 370)"/>
    <text id="Hello.pdf-2" data-name="Hello.pdf" transform="translate(74 384)" fill="#4a4545" font-size="15" font-family="SegoeUI, Segoe UI"><tspan x="0" y="0">Hello.pdf</tspan></text>
    <path id="file-alt-solid-2" data-name="file-alt-solid" d="M13.417,8.146V0H1.438A1.434,1.434,0,0,0,0,1.438V29.229a1.434,1.434,0,0,0,1.438,1.438H21.563A1.434,1.434,0,0,0,23,29.229V9.583H14.854A1.442,1.442,0,0,1,13.417,8.146ZM17.25,22.281a.721.721,0,0,1-.719.719H6.469a.721.721,0,0,1-.719-.719V21.8a.721.721,0,0,1,.719-.719H16.531a.721.721,0,0,1,.719.719Zm0-3.833a.721.721,0,0,1-.719.719H6.469a.721.721,0,0,1-.719-.719v-.479a.721.721,0,0,1,.719-.719H16.531a.721.721,0,0,1,.719.719Zm0-4.312v.479a.721.721,0,0,1-.719.719H6.469a.721.721,0,0,1-.719-.719v-.479a.721.721,0,0,1,.719-.719H16.531A.721.721,0,0,1,17.25,14.135ZM23,7.3v.365H15.333V0H15.7a1.436,1.436,0,0,1,1.018.419l5.864,5.87A1.433,1.433,0,0,1,23,7.3Z" transform="translate(45 413)"/>
    <text id="CourseDistro.iso-2" data-name="CourseDistro.iso" transform="translate(74 427)" fill="#4a4545" font-size="15" font-family="SegoeUI, Segoe UI"><tspan x="0" y="0">CourseDistro.iso</tspan></text>
    <path id="file-archive-solid-2" data-name="file-archive-solid" d="M22.581,6.289,16.717.419A1.436,1.436,0,0,0,15.7,0h-.365V7.667H23V7.3A1.433,1.433,0,0,0,22.581,6.289ZM7.691,20.125A1.8,1.8,0,0,0,5.75,21.742,1.8,1.8,0,0,0,7.7,23.359a1.8,1.8,0,0,0,1.941-1.617A1.807,1.807,0,0,0,7.691,20.125ZM13.417,8.146V0H9.607V1.917H7.691V0H1.438A1.434,1.434,0,0,0,0,1.438V29.229a1.434,1.434,0,0,0,1.438,1.438H21.563A1.434,1.434,0,0,0,23,29.229V9.583H14.854A1.442,1.442,0,0,1,13.417,8.146ZM5.744,1.917H7.661V3.833H5.744Zm1.935,23A3.141,3.141,0,0,1,4.6,21.149l1.174-5.816V13.417H7.691V11.5H5.774V9.583H7.691V7.667H5.774V5.75H7.691V3.833H9.607V5.75H7.691V7.667H9.607V9.583H7.691V11.5H9.607v1.917H7.691v1.917H9.014a.724.724,0,0,1,.707.581l1.036,5.253a3.141,3.141,0,0,1-3.079,3.749Z" transform="translate(45 454)"/>
    <text id="LotsOfMaybeUsefulInformation.zip-2" data-name="LotsOfMaybeUsefulInformation.zip" transform="translate(74 468)" fill="#4a4545" font-size="15" font-family="SegoeUI, Segoe UI"><tspan x="0" y="0">LotsOfMaybeUsefulInformation.zip</tspan></text>
    <text id="_html_text_is_also_displayed_2" data-name="&lt;html text is also displayed&gt;" transform="translate(19 351)" fill="#4a4545" font-size="15" font-family="SegoeUI, Segoe UI"><tspan x="0" y="0">&lt;html text is also displayed&gt;</tspan></text>
    <path id="trash-alt-solid-3" data-name="trash-alt-solid" d="M.75,10.875A1.125,1.125,0,0,0,1.875,12h6.75A1.125,1.125,0,0,0,9.75,10.875V3h-9Zm6.375-6a.375.375,0,0,1,.75,0v5.25a.375.375,0,0,1-.75,0Zm-2.25,0a.375.375,0,1,1,.75,0v5.25a.375.375,0,0,1-.75,0Zm-2.25,0a.375.375,0,0,1,.75,0v5.25a.375.375,0,0,1-.75,0ZM10.125.75H7.312L7.092.312A.563.563,0,0,0,6.588,0H3.909a.556.556,0,0,0-.5.312L3.187.75H.375A.375.375,0,0,0,0,1.125v.75a.375.375,0,0,0,.375.375h9.75a.375.375,0,0,0,.375-.375v-.75A.375.375,0,0,0,10.125.75Z" transform="translate(340 377)"/>
    <path id="trash-alt-solid-4" data-name="trash-alt-solid" d="M.75,10.875A1.125,1.125,0,0,0,1.875,12h6.75A1.125,1.125,0,0,0,9.75,10.875V3h-9Zm6.375-6a.375.375,0,0,1,.75,0v5.25a.375.375,0,0,1-.75,0Zm-2.25,0a.375.375,0,1,1,.75,0v5.25a.375.375,0,0,1-.75,0Zm-2.25,0a.375.375,0,0,1,.75,0v5.25a.375.375,0,0,1-.75,0ZM10.125.75H7.312L7.092.312A.563.563,0,0,0,6.588,0H3.909a.556.556,0,0,0-.5.312L3.187.75H.375A.375.375,0,0,0,0,1.125v.75a.375.375,0,0,0,.375.375h9.75a.375.375,0,0,0,.375-.375v-.75A.375.375,0,0,0,10.125.75Z" transform="translate(340 461)"/>
    <text id="_1.2_MB_Last_updated:_12_12_2019-2" data-name="1.2 MB • Last updated: 12/12/2019" transform="translate(74 398)" fill="#b8b0b0" font-size="10" font-family="SegoeUI, Segoe UI"><tspan x="0" y="0">1.2 MB • Last updated: 12/12/2019</tspan></text>
    <text id="_2.4_GB_Last_updated:_23_01_2020-2" data-name="2.4 GB • Last updated: 23/01/2020" transform="translate(74 440)" fill="#b8b0b0" font-size="10" font-family="SegoeUI, Segoe UI"><tspan x="0" y="0">2.4 GB • Last updated: 23/01/2020</tspan></text>
    <text id="_20_MB_Last_updated:_12_12_2001-2" data-name="20 MB • Last updated: 12/12/2001" transform="translate(74 481)" fill="#b8b0b0" font-size="10" font-family="SegoeUI, Segoe UI"><tspan x="0" y="0">20 MB • Last updated: 12/12/2001</tspan></text>
    <path id="download-solid-2" data-name="download-solid" d="M5.063,0H6.938A.561.561,0,0,1,7.5.563V4.5H9.555a.468.468,0,0,1,.33.8L6.321,8.866a.454.454,0,0,1-.64,0L2.112,5.3a.468.468,0,0,1,.33-.8H4.5V.563A.561.561,0,0,1,5.063,0ZM12,8.813v2.625a.561.561,0,0,1-.562.563H.563A.561.561,0,0,1,0,11.438V8.813A.561.561,0,0,1,.563,8.25H4L5.149,9.4a1.2,1.2,0,0,0,1.7,0L8,8.25h3.438A.561.561,0,0,1,12,8.813ZM9.094,10.875a.469.469,0,1,0-.469.469A.47.47,0,0,0,9.094,10.875Zm1.5,0a.469.469,0,1,0-.469.469A.47.47,0,0,0,10.594,10.875Z" transform="translate(339 417)"/>
    <path id="star-solid_1_" data-name="star-solid (1)" d="M34.49,1.031,30.664,8.788,22.1,10.036a1.876,1.876,0,0,0-1.037,3.2l6.193,6.034L25.8,27.793a1.874,1.874,0,0,0,2.718,1.974l7.657-4.025,7.657,4.025a1.875,1.875,0,0,0,2.718-1.974l-1.465-8.524,6.193-6.034a1.876,1.876,0,0,0-1.037-3.2L41.679,8.788,37.853,1.031A1.876,1.876,0,0,0,34.49,1.031Z" transform="translate(313.5 7.013)" fill="#ffed01"/>
  </g>
</svg>
