<svg xmlns="http://www.w3.org/2000/svg" xmlns:xlink="http://www.w3.org/1999/xlink" width="375" height="538" viewBox="0 0 375 538">
  <defs>
    <clipPath id="clip-Main">
      <rect width="375" height="538"/>
    </clipPath>
  </defs>
  <g id="Main" clip-path="url(#clip-Main)">
    <rect width="375" height="538" fill="#fff"/>
    <rect id="Rectangle_1" data-name="Rectangle 1" width="375" height="45" transform="translate(0 493)" fill="#6dd8ff"/>
    <path id="sync-alt-solid" d="M26.282,14.315a8.47,8.47,0,0,0-14,4.111.606.606,0,0,1-.587.461H8.812a.6.6,0,0,1-.6-.715,12.5,12.5,0,0,1,20.918-6.711l1.8-1.8A1.21,1.21,0,0,1,33,10.517v6.757a1.21,1.21,0,0,1-1.21,1.21H25.033a1.21,1.21,0,0,1-.855-2.065ZM9.21,22.516h6.757a1.21,1.21,0,0,1,.855,2.065l-2.1,2.1a8.47,8.47,0,0,0,14-4.111.606.606,0,0,1,.587-.461h2.888a.6.6,0,0,1,.6.715,12.5,12.5,0,0,1-20.918,6.711l-1.8,1.8A1.21,1.21,0,0,1,8,30.483V23.726A1.21,1.21,0,0,1,9.21,22.516Z" transform="translate(7 495)" fill="#fff"/>
    <path id="plus-solid_1_" data-name="plus-solid (1)" d="M23.214,41.821H15.179V33.786A1.786,1.786,0,0,0,13.393,32H11.607a1.786,1.786,0,0,0-1.786,1.786v8.036H1.786A1.786,1.786,0,0,0,0,43.607v1.786a1.786,1.786,0,0,0,1.786,1.786H9.821v8.036A1.786,1.786,0,0,0,11.607,57h1.786a1.786,1.786,0,0,0,1.786-1.786V47.179h8.036A1.786,1.786,0,0,0,25,45.393V43.607A1.786,1.786,0,0,0,23.214,41.821Z" transform="translate(175 471)" fill="#fff"/>
    <path id="cog-solid_1_" data-name="cog-solid (1)" d="M42.271,23.6l-2.147-1.24a9.709,9.709,0,0,0,0-3.538l2.147-1.24a.609.609,0,0,0,.277-.706,12.553,12.553,0,0,0-2.757-4.768A.606.606,0,0,0,39.045,12L36.9,13.235a9.512,9.512,0,0,0-3.064-1.769V8.991a.6.6,0,0,0-.474-.59,12.671,12.671,0,0,0-5.5,0,.6.6,0,0,0-.474.59v2.48a9.812,9.812,0,0,0-3.065,1.769L22.175,12a.6.6,0,0,0-.746.116,12.478,12.478,0,0,0-2.757,4.768.6.6,0,0,0,.277.706L21.1,18.83a9.709,9.709,0,0,0,0,3.538l-2.147,1.24a.609.609,0,0,0-.277.706,12.553,12.553,0,0,0,2.757,4.768.606.606,0,0,0,.746.116l2.147-1.24a9.512,9.512,0,0,0,3.065,1.769v2.48a.6.6,0,0,0,.474.59,12.671,12.671,0,0,0,5.5,0,.6.6,0,0,0,.474-.59v-2.48A9.812,9.812,0,0,0,36.9,27.958L39.05,29.2a.6.6,0,0,0,.746-.116,12.478,12.478,0,0,0,2.757-4.768A.622.622,0,0,0,42.271,23.6ZM30.607,24.626a4.032,4.032,0,1,1,4.032-4.032A4.038,4.038,0,0,1,30.607,24.626Z" transform="translate(316.356 494.901)" fill="#fff"/>
    <g id="Header">
      <rect id="Rectangle_3" data-name="Rectangle 3" width="375" height="45" fill="#6dd8ff"/>
      <text id="My_Moodles" data-name="My Moodles" transform="translate(133 31)" fill="#fff" font-size="20" font-family="SegoeUI, Segoe UI"><tspan x="0" y="0">My Moodles</tspan></text>
    </g>
    <g id="Entry" transform="translate(16 66)">
      <g id="Rectangle_4" data-name="Rectangle 4" fill="#fff" stroke="#707070" stroke-width="1">
        <rect width="344" height="38" stroke="none"/>
        <rect x="0.5" y="0.5" width="343" height="37" fill="none"/>
      </g>
      <path id="eye-regular_1_" data-name="eye-regular (1)" d="M12.751,67.542a4.911,4.911,0,0,0-1.383.221,2.453,2.453,0,0,1,.321,1.2,2.479,2.479,0,0,1-2.479,2.479,2.453,2.453,0,0,1-1.2-.321,4.945,4.945,0,1,0,4.737-3.575Zm12.6,4.312A14.2,14.2,0,0,0,12.751,64a14.2,14.2,0,0,0-12.6,7.854,1.432,1.432,0,0,0,0,1.292A14.2,14.2,0,0,0,12.751,81a14.2,14.2,0,0,0,12.6-7.854,1.432,1.432,0,0,0,0-1.292Zm-12.6,7.021A12.043,12.043,0,0,1,2.217,72.5a12.042,12.042,0,0,1,10.533-6.375A12.042,12.042,0,0,1,23.284,72.5,12.042,12.042,0,0,1,12.751,78.875Z" transform="translate(8.999 -53)"/>
      <text id="Instituto_Superior_de_Engenharia_do_Porto" data-name="Instituto Superior de Engenharia do Porto" transform="translate(51 25)" fill="#4a4545" font-size="15" font-family="SegoeUI, Segoe UI"><tspan x="0" y="0">Instituto Superior de Engenharia do Porto</tspan></text>
    </g>
  </g>
</svg>
